<svg width="56" height="74" viewBox="0 0 56 74" fill="none" xmlns="http://www.w3.org/2000/svg">
<path d="M45.4382 0.00295279V2.32572C45.0717 5.93854 43.623 9.35573 41.2826 12.1283C38.9421 14.9008 35.8194 16.8989 32.3247 17.8601C31.8936 16.5523 31.4565 15.2474 31.0786 13.9218C30.488 11.8505 30.8719 11.0782 32.8503 10.303C32.9034 10.2823 32.9329 10.1935 33.116 9.93906C32.4457 9.53665 31.8079 8.83834 31.1317 8.80283C28.6602 8.66376 26.1798 8.74956 23.7024 8.74956L23.54 9.04546L25.5331 10.4184C24.7418 12.8507 23.9239 15.3983 23.0823 17.94C19.8855 17.1304 16.9746 15.4504 14.6717 13.0857C12.3687 10.7211 10.7635 7.76411 10.0337 4.54197C9.89955 3.96183 9.79508 3.37519 9.72073 2.78436L9.59671 0.00295279H0V2.78436L1.20181 20.6889C1.20181 25.8788 1.32878 31.1901 1.31106 36.4274C1.2786 41.0662 2.26134 45.6558 4.19007 49.8729C5.91157 53.5064 8.53959 56.4003 11.1263 58.9864C16.4414 64.3125 21.7919 68.6295 26.8531 74L28.858 72.0323C23.7792 66.6441 18.2544 62.2944 12.9127 56.9624C10.5032 54.5509 8.05828 51.8731 6.52281 48.6271C4.77747 44.8027 3.8895 40.6416 3.92136 36.4363C3.94203 30.3912 3.92136 24.2455 3.92136 18.301C3.92136 17.4193 3.92136 16.5375 3.92136 15.6557C4.41408 16.4724 4.94928 17.2625 5.52475 18.0229C5.52475 20.2756 5.52475 22.5274 5.52475 24.7781C5.52475 28.3081 5.52475 31.9595 5.52475 35.5516C5.52475 39.9219 5.72554 45.5025 9.10358 49.8965C10.6184 51.8672 11.8291 53.5804 13.5771 55.2226C14.2858 55.8913 18.7475 60.5161 20.6639 62.4365C23.2447 65.0196 29.9181 70.7629 29.9181 70.7629L32.0766 68.668C32.0766 68.668 26.4367 63.6378 23.9002 61.0931C21.9779 59.1728 17.0615 54.2047 16.3439 53.5242C14.6638 51.9323 13.4295 50.2841 12.0239 48.4555C9.0711 44.6089 8.18526 39.5343 8.17049 35.5338C8.17049 31.9447 7.84567 28.2933 7.84863 24.7663C7.84863 23.417 7.84863 22.0677 7.84863 20.7185C8.43919 21.3102 9.05044 21.902 9.6912 22.4406V37.3802C9.6912 37.6761 9.75912 44.7776 15.6146 50.8138L15.6353 50.8345L33.1485 67.7004L34.9999 65.789L17.4719 48.9615C14.4413 45.8328 12.6138 41.73 12.3133 37.3802V24.4438C12.8183 24.7811 13.3291 25.1006 13.8547 25.4025V35.1906C13.8547 37.2086 13.8547 39.2947 14.5545 41.3777C15.3259 43.5381 16.4582 45.5512 17.903 47.3311C20.2653 50.2901 22.9612 52.7874 25.7457 55.1901C26.0942 55.4859 32.9211 61.6228 36.0807 64.7859L37.7756 63.0372C34.5629 59.8178 27.8777 53.6188 27.5263 53.3141C24.8274 50.9884 22.0399 48.5798 19.8489 45.7984C18.5763 44.239 17.5777 42.474 16.8961 40.5788C16.3203 38.8863 16.3233 37.0932 16.3292 35.1965V26.66C16.8813 26.9086 17.4453 27.1364 18.0152 27.3465C18.0005 28.0004 17.9739 28.6898 17.9473 29.4177C17.782 33.7082 17.156 38.5668 19.2731 42.1411C20.3227 43.8344 21.623 45.3579 23.1295 46.6594C24.2428 47.6566 25.1375 48.6479 26.0617 49.571L38.7087 61.9986L40.7137 60.1433L28.5214 47.7158C27.5736 46.766 26.5342 45.7422 25.3707 44.7006C23.7615 43.2626 22.4917 42.0583 21.7417 40.8007C20.0232 37.9039 20.4159 33.4537 20.5606 29.5302C20.5783 29.0745 20.596 28.6425 20.6078 28.1927C25.2151 29.3899 30.0522 29.3797 34.6545 28.1631L34.5895 32.6163C34.5895 33.1134 34.5895 33.6165 34.5895 34.0958C34.6072 36.1434 34.6249 38.0785 33.8218 39.7888C32.9891 41.5642 31.2912 43.2596 29.2921 44.819L31.2971 46.8902C33.3871 45.3217 35.0677 43.2701 36.1958 40.9102C37.2529 38.6555 37.2323 36.3268 37.2116 34.0751C37.2116 33.6076 37.2116 33.1194 37.2116 32.6518L37.2884 27.3258C37.8061 27.1285 38.3169 26.9194 38.8209 26.6985L38.7707 30.8143C38.7707 31.563 38.7707 32.3204 38.7707 33.0513C38.8032 35.886 38.8357 38.5638 37.8849 41.0611C36.875 43.6857 34.7253 46.0913 32.2272 47.6389L34.2322 49.648C37.2116 47.8046 39.1162 45.1622 40.3327 42.008C41.4755 39.0491 41.4401 35.9777 41.4017 33.0188C41.4017 32.3027 41.3869 31.563 41.4017 30.8469L41.4696 25.3462C41.9755 25.0503 42.4676 24.7396 42.946 24.4142L42.695 38.6674C42.695 38.9248 42.5178 45.2806 34.997 50.4202L36.8484 52.3554C45.4648 46.4671 45.3142 39.1704 45.3171 38.691L45.6124 22.3903L45.9077 22.1062C46.3447 21.7215 46.767 21.3191 47.1774 20.9078C47.1597 22.2887 47.14 23.7168 47.1184 25.1924C47.0622 28.8437 47.0061 32.6223 47.0445 35.9688C47.0918 40.0581 46.3063 43.5171 44.7029 46.2422C42.9932 49.1538 40.8052 50.2664 37.8051 53.3141L39.8101 55.1693C41.9922 52.9531 43.7905 51.7311 45.1961 50.0681C45.8575 49.2906 46.4503 48.457 46.9678 47.5767C48.8162 44.4284 49.7257 40.5137 49.6726 35.9392C49.6342 32.6252 49.6903 28.8674 49.7464 25.2308C49.7818 22.7453 49.8202 20.177 49.8261 17.8335C50.3653 17.1072 50.8669 16.3536 51.3291 15.5758C51.3291 16.5759 51.3055 17.582 51.2937 18.5762C51.2553 21.5529 51.2169 24.6331 51.2169 27.3731C51.2169 28.5567 51.2435 29.7876 51.273 30.9653C51.3734 35.2084 51.4767 39.5994 50.2365 43.6265C49.735 45.4374 48.9237 47.1474 47.8388 48.6804C45.2197 52.2489 41.2924 55.8972 40.8967 56.2523L42.7482 58.1076C44.975 56.0578 47.0375 53.8357 48.9166 51.4618C50.8478 48.9556 52.1648 46.2629 52.7553 44.3988C54.1225 39.9604 54.0132 35.3563 53.9069 30.9002C53.8804 29.7403 53.8508 28.533 53.8508 27.3731C53.8508 25.3581 53.8744 23.1537 53.901 20.9404L55.1471 4.07445L55.2239 2.7814V0L45.4382 0.00295279ZM7.09861 2.78436C7.1835 3.57296 7.31663 4.35558 7.49725 5.12783C8.54657 9.6603 11.0941 13.7042 14.7262 16.6029C18.3583 19.5016 22.8616 21.0848 27.5048 21.0954C32.148 21.106 36.6585 19.5434 40.3037 16.6614C43.949 13.7794 46.5149 9.74717 47.5849 5.21956C47.7722 4.41675 47.9122 3.60362 48.0042 2.78436H49.0406C48.9618 3.59572 48.8367 4.40186 48.6657 5.19884C46.5455 15.1616 37.6634 22.3932 27.5529 22.3932C17.4424 22.3932 8.51597 15.132 6.42241 5.12487C6.25752 4.35216 6.13625 3.57076 6.05921 2.78436H7.09861ZM52.3212 5.25802C51.6523 9.53973 49.8866 13.5744 47.1965 16.9678C44.5063 20.3613 40.9839 22.9976 36.9731 24.6191C32.9623 26.2406 28.6003 26.792 24.3134 26.2193C20.0264 25.6466 15.9609 23.9694 12.5141 21.3517C11.0022 20.2026 9.62441 18.8864 8.40672 17.4281C6.79983 15.5038 5.49087 13.3483 4.52374 11.0339C4.3072 10.517 4.11035 9.9933 3.93318 9.46267C3.90365 9.37686 3.87412 9.29105 3.84754 9.20524C3.41607 7.89407 3.09505 6.54897 2.88787 5.18405C2.76444 4.38891 2.68166 3.58797 2.63983 2.78436H3.43415C3.52092 3.75398 3.66089 4.71807 3.85344 5.67227C4.99924 11.0955 7.94232 15.9708 12.2041 19.5053C16.5163 23.0791 21.9359 25.0365 27.5319 25.0414C33.1278 25.0462 38.5508 23.0982 42.8692 19.5319C47.1219 16.0116 50.0651 11.1565 51.2228 5.75217C51.4196 4.77436 51.5635 3.78661 51.6539 2.79324H52.5752C52.5334 3.6187 52.4486 4.44141 52.3212 5.25802Z" fill="url(#paint0_linear_154_647)"/>
<defs>
<linearGradient id="paint0_linear_154_647" x1="0" y1="37.0015" x2="55.2003" y2="37.0015" gradientUnits="userSpaceOnUse">
<stop stop-color="#F15B5D"/>
<stop offset="0.54" stop-color="#E0228F"/>
<stop offset="1" stop-color="#9B278F"/>
</linearGradient>
</defs>
</svg>
